<?xml version="1.0" encoding="UTF-8" standalone="no"?>
<!-- Created with Inkscape (http://www.inkscape.org/) -->

<svg
   version="1.1"
   id="svg2"
   width="3664"
   height="2941.6399"
   viewBox="0 0 3664 2941.6399"
   sodipodi:docname="y2018-12-17-23.eps"
   xmlns:inkscape="http://www.inkscape.org/namespaces/inkscape"
   xmlns:sodipodi="http://sodipodi.sourceforge.net/DTD/sodipodi-0.dtd"
   xmlns="http://www.w3.org/2000/svg"
   xmlns:svg="http://www.w3.org/2000/svg">
  <defs
     id="defs6" />
  <sodipodi:namedview
     id="namedview4"
     pagecolor="#ffffff"
     bordercolor="#000000"
     borderopacity="0.25"
     inkscape:showpageshadow="2"
     inkscape:pageopacity="0.0"
     inkscape:pagecheckerboard="0"
     inkscape:deskcolor="#d1d1d1" />
  <g
     id="g8"
     inkscape:groupmode="layer"
     inkscape:label="ink_ext_XXXXXX"
     transform="matrix(1.3333333,0,0,-1.3333333,0,2941.64)">
    <g
       id="g10"
       transform="scale(0.1)">
      <path
         d="M 27480,0 H 0 V 22062.3 H 27480 V 0"
         style="fill:#ffffff;fill-opacity:1;fill-rule:nonzero;stroke:none"
         id="path12" />
      <path
         d="m 24895.3,5124.7 c -29.9,21.9 -987.3,466.8 -987.3,466.8 l -91.7,380.6 c 0,0 194.5,-69.6 208.6,-70.6 14.1,-1.1 40.2,21.5 40.2,21.5 0,0 12.3,-3.4 28.8,-8 l -36.6,-79.5 7.8,-3.6 37.2,80.8 c 12.5,-3.4 26.4,-7.2 39.3,-10.6 l -38.7,-84.8 7.9,-3.5 39.3,86.1 c 13.6,-3.5 25.2,-6.2 30.7,-7.1 19.9,-3.1 35,33.7 21.6,41.7 -4.2,2.5 -15.4,9.1 -28.9,16.9 l 35.5,77.8 -7.8,3.5 -35.1,-77 c -11.5,6.7 -23.9,13.9 -34.8,20.2 l 34.7,75.1 -7.8,3.6 -34.3,-74.4 c -12.1,7.1 -20.8,12.1 -20.8,12.1 0,0 -7,41 -16.8,52.7 -10,11.5 -323.5,167.8 -323.5,167.8 l -104,353.7 c 0,0 280.1,-98.6 293.1,-103 13,-4.3 39.4,8.5 39.4,8.5 0,0 10.1,-2.3 24.1,-5.4 l -31,-67.4 7.8,-3.6 31.8,69 c 12.7,-2.9 27.1,-6.1 40,-9.1 l -33.9,-74.5 7.8,-3.5 34.7,76 c 12.1,-2.8 22,-5 25.9,-5.9 14.3,-3.5 31.9,34 20,43.9 -3.3,2.7 -11.2,9.2 -20.8,17 l 38.4,84.4 -7.8,3.6 -37.5,-82.4 c -10.6,8.7 -22.3,18.1 -32,26 l 34.3,74.7 -7.8,3.5 -33.5,-72.6 c -8.1,6.5 -13.8,11 -13.8,11 0,0 -10,28.3 -27.2,37.9 -17.2,9.5 -392.9,186.5 -392.9,186.5 l -270.1,1233.6 -205.8,85.7 -45.3,-1138.4 c 0,0 -200.8,40.3 -217.2,-4.2 -16.4,-44.6 211.3,-143.3 211.3,-143.3 l -12.7,-321.9 c 0,0 -213,34.8 -226.7,-31.3 -13.7,-66.2 223.9,-171.6 223.9,-171.6 l 3.3,-323.9 c -705.1,333.8 -1364.1,544.6 -1364.1,544.6 l -229.5,749.8 -188,53.1 c 0,0 55.4,-637 18.4,-657.6 -31.9,-17.6 -231.8,-24.8 -231.8,-24.8 0,0 162.2,-133.4 134.1,-171.4 -36,-48.6 -491.1,-396.5 -491.1,-396.5 l 132.6,-129.9 738.4,312.2 c 0,0 66.8,-47.4 261.5,-148.5 194.7,-101.1 1028.7,-513.5 1028.7,-513.5 l -245.9,-189.9 c 0,0 -242.2,104.6 -268.8,70.3 -26.6,-34.2 190.3,-169.6 190.3,-169.6 l -288.2,-267.5 c 0,0 -200,100.3 -221.1,54.7 -21,-45.4 119.6,-143.2 119.6,-143.2 l -834.6,-762.9 232.5,-134.7 1080,613.6 c 0,0 407.4,-189 419.9,-192.3 12.4,-3.4 32.1,10.6 32.1,10.6 0,0 9.5,-3 22.2,-7 l -34.5,-75 7.8,-3.5 34.9,75.7 c 12.8,-4.2 27.2,-9 38.3,-13 l -35.3,-77.3 7.9,-3.5 35.4,77.9 c 2.1,-0.9 4,-1.6 5.5,-2.3 17.7,-7.5 38.4,23.1 23.5,33.8 -2.4,1.7 -6.3,4.5 -11,7.9 l 44.8,98 -7.8,3.6 -44,-96.4 c -9.9,7.3 -21.8,16.2 -32.9,24.4 l 41.6,90.3 -7.8,3.6 -40.8,-88.7 c -14.2,10.5 -25.3,18.8 -25.3,18.8 0,0 10,18.2 -1.9,35.8 -12,17.6 -306.5,174.2 -306.5,174.2 l 382.3,184.9 c 0,0 315.6,-150.8 326.3,-152.9 10.7,-2.1 46.2,11.6 46.2,11.6 0,0 3.2,-0.8 8.5,-2.1 l -33.8,-73.6 7.7,-3.6 34.6,75.1 c 10.9,-2.8 25.5,-6.5 39.6,-9.9 l -36.2,-79.7 7.7,-3.6 37,81.2 c 16,-4 29.9,-7.3 34.4,-8.1 12.8,-2.3 28.3,22.5 16.8,33.4 -3.9,3.6 -15.4,13.1 -28.6,24 l 38.7,84.9 -7.8,3.6 -37.8,-82.8 c -11,8.9 -22.6,18.2 -32,25.9 l 34.6,75.1 -7.9,3.7 -33.7,-73.2 c -7.9,6.3 -13.2,10.6 -13.2,10.6 0,0 0.3,32.9 -6.3,39.6 -6.7,6.7 -227,119.9 -227,119.9 l 385.6,183.3 c 803,-331.3 939.8,-392 939.8,-392 264.9,-63.7 447.5,-23.5 460.2,6.4 12.6,30 -228.3,271.5 -258.1,293.3"
         style="fill:#000000;fill-opacity:1;fill-rule:nonzero;stroke:none"
         id="path14" />
      <path
         d="m 3818,17427.9 c -316.96,0 -573.91,-256.9 -573.91,-573.9 0,-717.4 573.91,-1219.6 573.91,-1219.6 0,0 573.91,502.2 573.91,1219.6 0,317 -256.94,573.9 -573.91,573.9"
         style="fill:#000000;fill-opacity:1;fill-rule:nonzero;stroke:none"
         id="path16" />
      <path
         d="m 4175.72,16854 c 0,-197.6 -160.16,-357.7 -357.72,-357.7 -197.56,0 -357.71,160.1 -357.71,357.7 0,197.6 160.15,357.7 357.71,357.7 197.56,0 357.72,-160.1 357.72,-357.7"
         style="fill:#ffffff;fill-opacity:1;fill-rule:nonzero;stroke:none"
         id="path18" />
      <path
         d="m 3796.58,15600.6 c -16.46,0 -30.6,12.4 -32.39,29.2 -5.93,55.1 -9.61,110.8 -10.97,165.5 -0.45,18 13.78,33 31.81,33.4 17.85,0.5 32.99,-13.8 33.43,-31.8 1.32,-52.9 4.9,-106.8 10.61,-160.2 1.94,-17.9 -11.03,-34 -28.97,-35.9 -1.17,-0.1 -2.36,-0.2 -3.52,-0.2"
         style="fill:#000000;fill-opacity:1;fill-rule:nonzero;stroke:none"
         id="path20" />
      <path
         d="m 9511.44,16427.3 c -1.84,0 -3.69,0.2 -5.56,0.5 -68.82,11.8 -139.16,17.8 -209,17.8 -0.1,0 -0.15,0 -0.25,0 -35.69,0 -72.04,-1.6 -107.98,-4.7 -18,-1.5 -33.75,11.8 -35.3,29.8 -1.53,17.9 11.79,33.7 29.75,35.3 37.78,3.2 75.98,4.8 113.53,4.8 0.1,0 0.19,0 0.29,0 73.52,0 147.54,-6.2 219.98,-18.7 17.77,-3 29.72,-19.9 26.67,-37.7 -2.73,-15.9 -16.52,-27.1 -32.13,-27.1 z m -944.07,-181 c -11.61,0 -22.86,6.2 -28.76,17.2 -8.54,15.9 -2.61,35.7 13.25,44.2 101.39,54.6 204,98.8 304.97,131.4 17.16,5.6 35.55,-3.9 41.08,-21 5.54,-17.2 -3.87,-35.6 -21.03,-41.1 -97.21,-31.4 -196.16,-74 -294.07,-126.8 -4.92,-2.6 -10.2,-3.9 -15.44,-3.9 z m 1533.13,-83.5 c -7.5,0 -15,2.6 -21.1,7.8 -54.6,46.4 -112.91,86.4 -173.35,118.9 -31.55,16.6 -63.9,32.2 -95.84,46.2 -16.52,7.2 -24.06,26.4 -16.85,43 7.24,16.5 26.46,23.9 42.98,16.8 33.39,-14.6 67.16,-30.9 100.38,-48.4 64.78,-34.8 126.88,-77.4 184.88,-126.8 13.8,-11.6 15.4,-32.2 3.8,-45.9 -6.5,-7.6 -15.7,-11.6 -24.9,-11.6 z m -2059.9,-300.2 c -8.79,0 -17.56,3.5 -24,10.5 -12.23,13.2 -11.4,33.9 1.84,46.1 83.53,77.1 169.06,147.9 254.23,210.6 14.51,10.7 34.95,7.6 45.62,-6.9 10.7,-14.5 7.59,-34.9 -6.93,-45.6 -83.23,-61.3 -166.89,-130.6 -248.64,-206 -6.28,-5.8 -14.22,-8.7 -22.12,-8.7 z m 2436.6,-226.8 c -12.5,0 -24.4,7.2 -29.8,19.3 -45.7,102.5 -98.3,196.4 -156.2,279.3 -10.3,14.8 -6.7,35.2 8.1,45.5 14.8,10.3 35.2,6.6 45.5,-8.1 60.2,-86.3 114.8,-183.9 162.2,-290.1 7.4,-16.4 0,-35.7 -16.5,-43.1 -4.3,-1.9 -8.8,-2.8 -13.3,-2.8 z m -2875.92,-256.6 c -6.98,0 -13.99,2.2 -19.94,6.8 -14.26,11 -16.89,31.5 -5.88,45.8 68.21,88.3 139.23,173.3 211.13,252.8 12.13,13.4 32.74,14.4 46.1,2.3 13.37,-12.1 14.41,-32.7 2.32,-46.1 -70.79,-78.2 -140.71,-162 -207.88,-248.9 -6.44,-8.3 -16.1,-12.7 -25.85,-12.7 z m 10463.32,-300.1 c -0.7,0 -1.3,0 -2.1,0 -107.6,6.8 -216.2,9.5 -323.9,8 -0.2,0 -0.3,0 -0.4,0 -17.9,0 -32.5,14.3 -32.7,32.2 -0.2,18 14.2,32.8 32.2,33.1 109.5,1.5 219.6,-1.3 328.9,-8.1 18,-1.1 31.7,-16.6 30.6,-34.6 -1.1,-17.3 -15.5,-30.6 -32.6,-30.6 z m -976.4,-53.3 c -15.5,0 -29.2,11 -32.1,26.8 -3.2,17.7 8.6,34.7 26.3,37.9 106,19.2 215.9,34.1 326.5,44.5 17.7,1.6 33.9,-11.6 35.6,-29.5 1.6,-18 -11.6,-33.9 -29.5,-35.5 -108.8,-10.2 -216.8,-24.9 -321,-43.7 -1.9,-0.4 -3.9,-0.5 -5.8,-0.5 z m -6429.9,-16 c -15.8,0 -29.6,11.4 -32.2,27.4 -17.7,108.8 -41.1,214.8 -69.6,315.2 -5,17.3 5.1,35.3 22.4,40.3 17.4,4.9 35.4,-5.1 40.3,-22.5 29.3,-102.8 53.3,-211.3 71.3,-322.6 2.9,-17.8 -9.2,-34.5 -27,-37.4 -1.7,-0.3 -3.5,-0.4 -5.2,-0.4 z m 8052.7,-20.6 c -2.3,0 -4.7,0.2 -7,0.7 -103.8,22.8 -211.1,42 -319.1,56.9 -17.8,2.5 -30.3,19 -27.8,36.8 2.5,17.9 18.8,30.4 36.8,27.9 109.6,-15.2 218.6,-34.6 324.1,-57.8 17.6,-3.9 28.7,-21.3 24.9,-38.9 -3.4,-15.2 -16.9,-25.6 -31.9,-25.6 z m -14748.23,-17.8 c -12.75,0 -24.83,7.5 -30.1,20 -43.55,103.5 -79.72,208.7 -107.47,312.7 -4.65,17.4 5.7,35.3 23.11,39.9 17.37,4.6 35.28,-5.7 39.95,-23.1 26.98,-101.1 62.17,-203.4 104.59,-304.2 6.98,-16.6 -0.81,-35.8 -17.43,-42.8 -4.13,-1.7 -8.42,-2.5 -12.65,-2.5 z m 12497.43,-123.1 c -12.9,0 -25.2,7.8 -30.3,20.6 -6.7,16.7 1.5,35.7 18.2,42.4 99.9,39.8 205.1,75.3 312.8,105.5 17.4,5 35.4,-5.2 40.3,-22.6 4.9,-17.3 -5.3,-35.3 -22.6,-40.2 -105.6,-29.6 -208.6,-64.4 -306.3,-103.4 -3.9,-1.5 -8,-2.3 -12.1,-2.3 z m -9219.6,-13.9 c -5.39,0 -10.86,1.3 -15.9,4.1 -15.73,8.8 -21.36,28.7 -12.54,44.5 52.46,93.7 110.23,188.3 171.7,281 9.93,15 30.17,19.2 45.23,9.2 15.03,-10 19.15,-30.2 9.18,-45.2 -60.57,-91.5 -117.49,-184.6 -169.15,-276.9 -5.99,-10.7 -17.08,-16.7 -28.52,-16.7 z m 12092.5,-41.8 c -4.3,0 -8.7,0.9 -12.9,2.7 -94.7,40.9 -196.8,78.5 -303.2,111.8 -17.2,5.4 -26.8,23.7 -21.4,40.9 5.4,17.2 23.6,26.8 40.9,21.4 108.6,-33.9 212.7,-72.4 309.6,-114.2 16.5,-7.1 24.1,-26.3 17,-42.9 -5.3,-12.3 -17.3,-19.7 -30,-19.7 z M 15889,14535.2 c -10.1,0 -20,4.7 -26.4,13.4 -10.6,14.5 -7.5,34.9 7.1,45.6 87.1,63.9 181.1,123.4 279.2,176.9 15.8,8.6 35.7,2.8 44.3,-13.1 8.6,-15.8 2.8,-35.6 -13.1,-44.2 -95.5,-52.1 -187,-110.1 -271.8,-172.3 -5.9,-4.2 -12.6,-6.3 -19.3,-6.3 z m 4008.1,-69.1 c -7.1,0 -14.2,2.3 -20.1,7 -83.5,65.4 -173.7,124.8 -268,176.5 -15.8,8.7 -21.6,28.5 -12.9,44.3 8.6,15.8 28.5,21.6 44.3,12.9 97.4,-53.4 190.6,-114.8 276.8,-182.3 14.2,-11.2 16.7,-31.7 5.6,-45.9 -6.5,-8.2 -16.1,-12.5 -25.7,-12.5 z M 4283.73,14404 c -10.19,0 -20.21,4.8 -26.59,13.7 -65.22,91.2 -125.14,184.6 -178.08,277.6 -8.91,15.7 -3.44,35.6 12.22,44.6 15.69,8.8 35.59,3.4 44.52,-12.3 51.84,-91.1 110.53,-182.6 174.44,-272 10.49,-14.6 7.09,-35 -7.57,-45.5 -5.75,-4.1 -12.38,-6.1 -18.94,-6.1 z m 6412.37,-45.5 c -0.5,0 -1,0 -1.5,0 -18,0.8 -31.9,16 -31.1,34 1.9,45.6 3,92 3,138.1 0,61.4 -1.8,123.7 -5.4,185.1 -1,18 12.7,33.5 30.7,34.5 18.1,0.8 33.5,-12.7 34.5,-30.7 3.6,-62.7 5.4,-126.3 5.4,-188.9 0,-47 -1,-94.4 -3,-140.9 -0.8,-17.5 -15.2,-31.2 -32.6,-31.2 z m -3725.16,-118.8 c -3.89,0 -7.83,0.7 -11.67,2.2 -16.85,6.4 -25.26,25.3 -18.82,42.1 38.16,99.7 79.89,201.9 124.08,303.7 7.16,16.6 26.3,24.2 42.94,17 16.53,-7.2 24.11,-26.4 16.94,-42.9 -43.81,-101.1 -85.19,-202.3 -122.99,-301.1 -4.97,-13 -17.36,-21 -30.48,-21 z m 8454.96,-161.4 c -6.8,0 -13.6,2.1 -19.5,6.5 -14.4,10.8 -17.4,31.2 -6.6,45.6 65.7,88 138.9,171.9 217.7,249.5 12.8,12.6 33.5,12.5 46.1,-0.4 12.7,-12.8 12.5,-33.5 -0.3,-46.1 -76.4,-75.2 -147.5,-156.7 -211.2,-242 -6.4,-8.6 -16.2,-13.1 -26.2,-13.1 z m 4909.1,-92.7 c -10.7,0 -21.2,5.3 -27.4,15 -58.3,90.1 -124.1,175.7 -195.6,254.2 -12.1,13.3 -11.2,34 2.2,46.1 13.3,12.1 33.9,11.2 46.1,-2.1 73.9,-81.2 141.9,-169.6 202.1,-262.8 9.8,-15.2 5.5,-35.3 -9.7,-45.1 -5.5,-3.6 -11.6,-5.3 -17.7,-5.3 z m -15626.57,-77.1 c -8.31,0 -16.61,3.1 -22.98,9.4 -79.07,78.5 -154.64,159.5 -224.6,240.8 -11.74,13.6 -10.2,34.3 3.46,46 13.67,11.7 34.27,10.2 46.04,-3.4 68.82,-80.1 143.21,-159.8 221.06,-237 12.8,-12.7 12.89,-33.4 0.19,-46.2 -6.37,-6.4 -14.77,-9.6 -23.17,-9.6 z m 5883.37,-193.2 c -3.2,0 -6.5,0.4 -9.7,1.4 -17.2,5.3 -26.9,23.6 -21.5,40.8 29.7,96.4 53.7,202 71.3,313.8 2.7,17.8 19.3,30 37.3,27.2 17.8,-2.8 29.9,-19.6 27.1,-37.4 -18,-114.9 -42.7,-223.5 -73.4,-322.8 -4.3,-14 -17.2,-23 -31.1,-23 z m -3823.01,-96.5 c -2.76,0 -5.58,0.4 -8.39,1.1 -17.41,4.7 -27.78,22.5 -23.18,39.9 27.3,103 58.71,208.9 93.38,314.9 5.62,17.2 24.06,26.5 41.15,20.9 17.15,-5.6 26.48,-24 20.89,-41.1 -34.29,-104.9 -65.35,-209.7 -92.31,-311.4 -3.9,-14.6 -17.09,-24.3 -31.54,-24.3 z m 8349.61,-113.6 c -3.7,0 -7.5,0.6 -11.2,1.9 -16.9,6.2 -25.6,25 -19.4,41.9 38.2,104.8 83.5,206.4 134.6,302 8.5,15.9 28.3,21.9 44.2,13.4 15.9,-8.5 21.9,-28.2 13.4,-44.1 -49.7,-93 -93.7,-191.8 -130.9,-293.7 -4.9,-13.2 -17.4,-21.4 -30.7,-21.4 z m -9915.37,-23.1 c -6.83,0 -13.72,2.1 -19.61,6.5 -88.37,66.6 -174.57,136 -256.18,206.2 -13.67,11.8 -15.21,32.4 -3.47,46 11.75,13.7 32.38,15.2 46.04,3.5 80.56,-69.3 165.64,-137.8 252.9,-203.5 14.39,-10.9 17.26,-31.3 6.41,-45.8 -6.41,-8.5 -16.2,-12.9 -26.09,-12.9 z m 15395.57,-91.3 c -14.3,0 -27.5,9.5 -31.4,24 -28.5,104.2 -64.6,206.2 -107.4,303.1 -7.3,16.5 0.2,35.7 16.7,43 16.4,7.1 35.7,-0.2 43,-16.7 44.1,-99.8 81.3,-204.9 110.6,-312.2 4.8,-17.4 -5.4,-35.3 -22.9,-40.1 -2.8,-0.8 -5.7,-1.1 -8.6,-1.1 z m -10318.8,-244.6 c -7.2,0 -14.5,2.4 -20.5,7.3 -14,11.3 -16.1,31.9 -4.8,45.9 66.5,81.8 127.4,170.9 181.1,264.8 9,15.7 28.9,21.1 44.6,12.1 15.6,-8.9 21,-28.8 12.1,-44.5 -55.5,-96.9 -118.4,-189 -187.1,-273.6 -6.5,-7.9 -15.9,-12 -25.4,-12 z m -4532.67,-25.3 c -5.59,0 -11.25,1.4 -16.42,4.4 -94.85,55.4 -188.66,113.8 -278.85,173.6 -15,9.9 -19.12,30.2 -9.16,45.2 9.98,15 30.25,19.1 45.25,9.2 89.14,-59.2 181.89,-116.9 275.66,-171.6 15.56,-9.1 20.82,-29.1 11.74,-44.7 -6.07,-10.4 -17.01,-16.1 -28.22,-16.1 z m 896.82,-142.8 c -1.3,0 -2.62,0.1 -3.93,0.3 -17.88,2.1 -30.67,18.3 -28.53,36.2 12.68,105.9 30.03,215.2 51.62,325 3.49,17.7 20.74,29.3 38.32,25.7 17.69,-3.5 29.21,-20.6 25.74,-38.3 -21.27,-108.2 -38.39,-215.9 -50.87,-320.1 -1.98,-16.6 -16.07,-28.8 -32.35,-28.8 z m 8329.15,-107.8 c -1.1,0 -2.3,0.1 -3.4,0.2 -17.9,1.8 -31,17.9 -29.1,35.8 2.9,28.2 6.4,56.3 10.3,84.5 11.5,82 26.3,163.2 44,241.2 4,17.6 21.4,28.7 39,24.7 17.6,-4 28.6,-21.5 24.6,-39.1 -17.3,-76.2 -31.7,-155.6 -42.9,-235.9 -3.9,-27.4 -7.2,-54.7 -10.1,-82.1 -1.7,-16.8 -15.9,-29.3 -32.4,-29.3 z m -8644.46,-47.1 c -4.43,0 -8.92,0.9 -13.24,2.8 -99.66,44.3 -199.42,92 -296.5,141.7 -16.05,8.2 -22.39,27.8 -14.18,43.9 8.18,16 27.84,22.4 43.92,14.2 96.01,-49.2 194.68,-96.3 293.27,-140.1 16.47,-7.3 23.9,-26.6 16.56,-43.1 -5.4,-12.2 -17.33,-19.4 -29.83,-19.4 z m 14353.56,-78.5 c -0.1,0 -0.2,0 -0.3,0 -18,0.1 -32.5,14.9 -32.3,32.9 v 10.9 c 0,104.5 -6.6,209 -19.6,310.6 -2.3,17.8 10.3,34.2 28.2,36.5 18.1,2.4 34.2,-10.4 36.6,-28.3 13.3,-104.3 20.1,-211.5 20.1,-318.8 v -11.4 c -0.2,-18 -14.8,-32.4 -32.7,-32.4 z m -10890.83,-27.2 c -10.94,0 -21.6,5.5 -27.78,15.5 -9.49,15.3 -4.76,35.4 10.57,44.9 91.69,56.7 178.5,120.8 257.94,190.5 13.6,11.9 34.2,10.5 46.1,-3 11.9,-13.6 10.5,-34.2 -3,-46.1 -82.23,-72 -171.95,-138.3 -266.68,-196.9 -5.35,-3.3 -11.28,-4.9 -17.15,-4.9 z m -598.41,-256.6 c -14.33,0 -27.48,9.6 -31.45,24 -4.76,17.4 5.44,35.4 22.83,40.1 105.64,29 208.03,64.5 304.31,105.5 16.67,7 35.75,-0.7 42.82,-17.3 7.05,-16.6 -0.67,-35.8 -17.27,-42.8 -98.98,-42.1 -204.14,-78.5 -312.58,-108.3 -2.89,-0.8 -5.81,-1.2 -8.66,-1.2 z m -1619.65,-28.8 c -1.95,0 -3.97,0.1 -5.98,0.5 -105.9,19.6 -213.98,43.3 -321.21,70.3 -17.48,4.4 -28.08,22.1 -23.69,39.6 4.41,17.5 22.14,28.1 39.64,23.7 105.89,-26.7 212.6,-50.1 317.16,-69.4 17.71,-3.3 29.43,-20.3 26.14,-38.1 -2.91,-15.7 -16.64,-26.6 -32.06,-26.6 z m 975.33,-71.2 c -17.25,0 -31.65,13.5 -32.55,30.9 -0.92,18 12.93,33.4 30.93,34.3 109.82,5.6 218.03,16.5 321.63,32.3 17.82,2.6 34.47,-9.6 37.2,-27.4 2.71,-17.8 -9.53,-34.4 -27.35,-37.2 -105.74,-16.1 -216.15,-27.2 -328.15,-32.9 -0.57,0 -1.15,0 -1.71,0 z m -326.51,-2.1 c -0.41,0 -0.81,0 -1.22,0 -107.13,3.9 -217.58,12.3 -328.23,25 -17.91,2 -30.77,18.2 -28.74,36.1 2.07,17.9 18.24,30.7 36.13,28.7 109,-12.4 217.76,-20.7 323.23,-24.5 18,-0.7 32.09,-15.8 31.42,-33.8 -0.65,-17.6 -15.12,-31.5 -32.59,-31.5 z m -1598.97,-32.4 c -17.07,0 -31.43,13.3 -32.54,30.6 -4.38,69 -6.6,140 -6.6,210.9 0,39.1 0.65,78.6 1.99,118.4 0.4,12.1 7.31,22.4 17.25,27.7 -5.24,8.4 -6.63,19 -2.85,28.9 6.4,16.9 25.29,25.4 42.09,18.9 101.65,-38.6 204.95,-74.5 307.07,-106.8 17.2,-5.4 26.72,-23.8 21.29,-41 -5.44,-17.1 -23.83,-26.7 -40.96,-21.2 -92.69,29.2 -186.32,61.5 -278.84,96.1 0.17,-1.6 0.24,-3.2 0.19,-4.8 -1.3,-39.1 -1.96,-77.8 -1.96,-116.2 0,-69.6 2.18,-139.1 6.48,-206.7 1.15,-18 -12.5,-33.5 -30.49,-34.7 -0.71,0 -1.41,-0.1 -2.12,-0.1 z M 14990,12219.8 c -15.9,0 -29.8,11.6 -32.2,27.8 -16.6,110.1 -26.6,220.5 -29.6,328.3 -0.5,18 13.7,33 31.7,33.5 17.9,0.4 33.1,-13.7 33.6,-31.7 2.9,-105.1 12.6,-212.9 28.8,-320.4 2.7,-17.8 -9.5,-34.4 -27.4,-37.1 -1.6,-0.3 -3.3,-0.4 -4.9,-0.4 z m 5608.4,-121.4 c -2.7,0 -5.4,0.3 -8.2,1 -17.4,4.5 -27.9,22.3 -23.5,39.7 26.7,104.3 47.3,210.9 61.1,316.7 2.4,17.9 18.6,30.5 36.6,28.2 17.9,-2.4 30.5,-18.8 28.1,-36.6 -14.1,-108.5 -35.2,-217.7 -62.6,-324.4 -3.7,-14.8 -17,-24.6 -31.5,-24.6 z M 6735.39,11685.8 c -14.06,0 -27.05,9.1 -31.27,23.3 -30.9,103.8 -56.17,211.8 -75.11,320.9 -3.07,17.7 8.83,34.7 26.59,37.7 17.77,3 34.64,-8.8 37.73,-26.6 18.51,-106.6 43.17,-212 73.36,-313.4 5.15,-17.2 -4.68,-35.4 -21.96,-40.6 -3.11,-0.9 -6.25,-1.3 -9.34,-1.3 z m 8419.41,-96.2 c -13.2,0 -25.7,8.2 -30.6,21.4 -38.7,105 -72.1,210.6 -99.4,313.9 -4.6,17.5 5.8,35.3 23.2,39.9 17.5,4.6 35.3,-5.8 39.9,-23.2 26.8,-101.4 59.6,-205 97.6,-308 6.2,-16.9 -2.4,-35.7 -19.4,-41.9 -3.7,-1.4 -7.5,-2.1 -11.3,-2.1 z m 5209,-99.4 c -5.1,0 -10.3,1.2 -15.1,3.8 -16,8.4 -22.1,28.1 -13.8,44.1 50.1,95.1 94.9,194 133.5,293.8 6.5,16.8 25.4,25.2 42.2,18.7 16.8,-6.5 25.2,-25.4 18.7,-42.2 -39.5,-102.2 -85.4,-203.3 -136.5,-300.7 -5.9,-11.1 -17.3,-17.5 -29,-17.5 z m -13367.57,-400 c -11.14,0 -21.97,5.7 -28.08,16 -56.17,94.4 -106.9,193.1 -150.75,293.3 -7.24,16.5 0.3,35.7 16.81,43 16.51,7.2 35.75,-0.4 42.98,-16.8 42.78,-97.8 92.25,-194 147.05,-286.2 9.21,-15.4 4.12,-35.5 -11.36,-44.7 -5.22,-3.1 -10.98,-4.6 -16.65,-4.6 z m 8432.77,-92.6 c -11.5,0 -22.6,6 -28.6,16.7 -54.2,97.8 -104.5,196.3 -149.5,293 -7.6,16.3 -0.5,35.7 15.9,43.3 16.3,7.7 35.7,0.6 43.3,-15.8 44.3,-95.2 93.9,-192.4 147.4,-288.8 8.8,-15.7 3.1,-35.6 -12.7,-44.4 -5,-2.7 -10.4,-4 -15.8,-4 z m 4568.3,-46.5 c -7.5,0 -15,2.6 -21.2,7.9 -13.7,11.7 -15.2,32.3 -3.5,46 70,81.7 136.1,167.9 196.2,256.4 10.1,14.8 30.5,18.7 45.3,8.6 15,-10.2 18.8,-30.5 8.7,-45.4 -61.5,-90.4 -129,-178.6 -200.7,-262.1 -6.4,-7.5 -15.5,-11.4 -24.8,-11.4 z M 7392.36,10574.2 c -8.54,0 -17.09,3.3 -23.49,10 -77.08,79.9 -149.58,163.8 -215.51,249.4 -10.99,14.3 -8.33,34.8 5.98,45.8 14.25,11 34.72,8.3 45.76,-6 64.44,-83.7 135.34,-165.8 210.75,-243.9 12.5,-13 12.15,-33.7 -0.84,-46.2 -6.31,-6.1 -14.49,-9.1 -22.65,-9.1 z m 12129.44,-69 c -9.8,0 -19.6,4.5 -26,13 -10.9,14.3 -8,34.8 6.3,45.7 86.1,65 169.3,134.9 247.2,207.9 13.2,12.3 33.9,11.6 46.1,-1.5 12.4,-13.2 11.7,-33.8 -1.5,-46.1 -79.6,-74.6 -164.5,-146 -252.4,-212.4 -5.9,-4.5 -12.8,-6.6 -19.7,-6.6 z m -3741.9,-58.5 c -10.1,0 -20.1,4.7 -26.5,13.6 -64.9,90.4 -127,181.9 -184.4,271.8 -9.8,15.2 -5.3,35.4 9.9,45.1 15.2,9.7 35.4,5.3 45.1,-9.9 56.8,-89 118.2,-179.4 182.4,-268.9 10.5,-14.7 7.2,-35.1 -7.4,-45.6 -5.8,-4.1 -12.5,-6.1 -19.1,-6.1 z m 3184.6,-280 c -12.2,0 -23.9,6.8 -29.4,18.5 -7.9,16.2 -1,35.7 15.2,43.5 97.6,47 193.3,98.8 284.3,153.9 15.5,9.4 35.5,4.4 44.9,-10.9 9.3,-15.5 4.4,-35.5 -11,-44.9 -92.9,-56.3 -190.4,-109.1 -289.9,-156.9 -4.5,-2.2 -9.4,-3.2 -14.1,-3.2 z m -11075.75,-14.8 c -6.49,0 -13.05,1.9 -18.77,5.9 -91.23,64.3 -178.9,132 -260.61,201.2 -13.75,11.7 -15.45,32.3 -3.81,46 11.69,13.8 32.24,15.5 46.02,3.8 80.21,-68 166.34,-134.5 256,-197.6 14.72,-10.4 18.27,-30.8 7.87,-45.5 -6.35,-9 -16.44,-13.8 -26.7,-13.8 z m 8296.75,-217.7 c -9.2,0 -18.3,3.8 -24.7,11.3 -72.4,83.8 -142.9,168.8 -209.5,252.8 -11.1,14.1 -8.8,34.6 5.3,45.8 14.1,11.2 34.7,8.9 45.9,-5.3 66,-83.2 135.8,-167.5 207.7,-250.6 11.7,-13.7 10.2,-34.3 -3.4,-46 -6.2,-5.4 -13.8,-8 -21.3,-8 z m 2176.9,-21.1 c -13.2,0 -25.7,8.1 -30.6,21.2 -6.3,16.8 2.2,35.7 19.1,42 104.1,39.1 205.9,79.4 302.6,120 16.6,7 35.8,-0.9 42.7,-17.5 7,-16.6 -0.8,-35.7 -17.5,-42.7 -97.4,-40.9 -200,-81.6 -304.9,-120.9 -3.8,-1.4 -7.6,-2.1 -11.4,-2.1 z m -9912.97,-94.9 c -4.92,0 -9.94,1.1 -14.65,3.5 -99.71,50.2 -196.77,103.2 -288.5,157.6 -15.48,9.2 -20.61,29.2 -11.42,44.7 9.2,15.5 29.19,20.6 44.73,11.5 90.44,-53.7 186.18,-106 284.55,-155.5 16.09,-8.1 22.58,-27.8 14.47,-43.9 -5.73,-11.4 -17.24,-17.9 -29.18,-17.9 z m 9294.17,-115.1 c -14,0 -26.9,9 -31.2,23 -5.3,17.2 4.4,35.5 21.6,40.8 105.5,32.4 209.8,66.1 310.1,100 17.1,5.8 35.6,-3.3 41.4,-20.4 5.7,-17.1 -3.4,-35.6 -20.4,-41.4 -100.9,-34.2 -205.9,-68 -311.9,-100.6 -3.2,-1 -6.5,-1.4 -9.6,-1.4 z M 9049.07,9559.5 c -3.77,0 -7.57,0.6 -11.29,2 -104.6,38.5 -207.25,79.4 -305.09,121.5 -16.56,7.1 -24.2,26.3 -17.09,42.8 7.13,16.6 26.28,24.2 42.88,17.1 96.77,-41.6 198.35,-82 301.87,-120.2 16.92,-6.2 25.57,-25 19.34,-41.9 -4.86,-13.2 -17.35,-21.3 -30.62,-21.3 z M 17114.3,9527 c -14.6,0 -27.8,9.8 -31.6,24.6 -4.5,17.4 6.1,35.2 23.6,39.6 106.5,27.1 212.5,55.4 314.9,84 17.5,4.8 35.4,-5.2 40.3,-22.6 4.8,-17.4 -5.3,-35.4 -22.7,-40.2 -102.9,-28.8 -209.4,-57.2 -316.4,-84.4 -2.7,-0.7 -5.4,-1 -8.1,-1 z m -636.7,-147.5 c -15.1,0 -28.6,10.5 -31.9,25.9 -3.7,17.6 7.6,34.9 25.3,38.6 43.5,9.2 87,18.5 130.5,28 -75.6,75.8 -150.1,153 -221.5,229.5 -12.2,13.1 -11.5,33.8 1.6,46.1 13.2,12.3 33.8,11.5 46.2,-1.6 72.8,-78.1 149,-157 226.4,-234.3 7.1,-7.1 10.2,-16.7 9.4,-26 42.2,9.4 84.2,19 125.8,28.6 17.5,4.1 35.1,-6.9 39.1,-24.4 4.1,-17.6 -6.8,-35.1 -24.4,-39.2 -105.1,-24.3 -212.6,-48 -319.7,-70.6 -2.3,-0.4 -4.5,-0.6 -6.8,-0.6 z m -6805.72,-17.1 c -2.8,0 -5.66,0.4 -8.51,1.2 -106.75,28.8 -212.7,59.7 -314.94,91.9 -17.2,5.5 -26.72,23.8 -21.3,41 5.41,17.2 23.77,26.7 40.94,21.3 101.35,-32 206.43,-62.7 312.29,-91.2 17.41,-4.7 27.72,-22.6 23.01,-40 -3.91,-14.6 -17.1,-24.2 -31.49,-24.2 z m 6163.72,-105 c -15.6,0 -29.4,11.3 -32.1,27.2 -3.1,17.7 8.9,34.6 26.7,37.6 106.7,18.3 214.7,37.7 320.9,57.9 17.8,3.2 34.8,-8.3 38.2,-26 3.3,-17.7 -8.3,-34.8 -26,-38.1 -106.6,-20.3 -215,-39.8 -322.2,-58.1 -1.8,-0.3 -3.7,-0.5 -5.5,-0.5 z m -5526.9,-41.5 c -2.1,0 -4.2,0.1 -6.3,0.6 -108.4,21 -216.4,43.8 -320.78,67.7 -17.58,4 -28.55,21.6 -24.52,39.1 4.04,17.6 21.64,28.6 39.11,24.5 103.69,-23.8 210.89,-46.4 318.59,-67.3 17.7,-3.4 29.3,-20.5 25.9,-38.2 -3,-15.6 -16.7,-26.4 -32,-26.4 z m 4880.8,-56.8 c -16.1,0 -30.1,12 -32.3,28.3 -2.4,17.9 10.2,34.3 28,36.7 107.7,14.4 216.3,30 322.9,46.2 17.9,2.8 34.5,-9.6 37.2,-27.4 2.7,-17.8 -9.5,-34.4 -27.4,-37.1 -107,-16.3 -216,-31.9 -324,-46.4 -1.5,-0.2 -2.9,-0.3 -4.4,-0.3 z m -4235.8,-47.6 c -1.4,0 -2.8,0 -4.3,0.2 -109.2,14.5 -218.3,30.4 -324.2,47.5 -17.8,2.9 -29.9,19.7 -27,37.4 2.8,17.8 19.5,30 37.4,27.1 105.3,-17 213.8,-32.9 322.4,-47.3 17.9,-2.3 30.4,-18.7 28.1,-36.6 -2.2,-16.4 -16.2,-28.3 -32.4,-28.3 z m 3586.4,-27.7 c -16.6,0 -30.8,12.5 -32.5,29.4 -1.7,17.9 11.4,33.9 29.3,35.7 107.7,10.6 217,22.3 324.7,34.8 18.1,2.2 34.1,-10.8 36.2,-28.7 2,-17.9 -10.8,-34.1 -28.7,-36.2 -108.1,-12.5 -217.7,-24.2 -325.8,-34.9 -1.1,-0.1 -2.2,-0.1 -3.2,-0.1 z M 11603.7,9043 c -0.8,0 -1.7,0.1 -2.6,0.2 -109.1,8.7 -218.9,18.8 -326.2,30.1 -18,1.8 -31,17.9 -29.1,35.8 1.9,18 17.8,31.1 35.9,29.1 106.8,-11.3 216,-21.3 324.6,-30 18,-1.4 31.4,-17.1 30,-35.1 -1.4,-17.1 -15.7,-30.1 -32.6,-30.1 z m 2284.6,-11.7 c -17.1,0 -31.4,13.3 -32.5,30.6 -1.2,18 12.5,33.5 30.5,34.6 108.3,6.8 217.9,14.6 325.5,23.3 18,1.5 33.7,-11.9 35.2,-29.9 1.4,-18 -12,-33.7 -30,-35.2 -108,-8.7 -217.9,-16.5 -326.6,-23.4 -0.7,0 -1.4,0 -2.1,0 z m 3219.1,-23.2 c -7.7,0 -15.4,2.7 -21.6,8.2 -82.4,73 -163.9,147.3 -242.3,221 -13.1,12.3 -13.8,33 -1.4,46.1 12.3,13.2 32.9,13.8 46.1,1.5 78,-73.3 159,-147.2 240.8,-219.7 13.5,-12 14.8,-32.6 2.8,-46.1 -6.4,-7.3 -15.4,-11 -24.4,-11 z m -4851.1,-2 c -0.4,0 -0.8,0 -1.2,0 -110.6,3.8 -220.6,8.8 -327.2,14.8 -18,1.1 -31.7,16.4 -30.7,34.4 1,18 16.4,31.7 34.4,30.8 106.1,-6 215.7,-11 325.8,-14.8 18,-0.6 32.1,-15.7 31.5,-33.8 -0.7,-17.6 -15.1,-31.4 -32.6,-31.4 z m 979.2,-3.7 c -17.7,0 -32.2,14.1 -32.6,31.8 -0.5,18 13.7,33 31.7,33.5 107.7,2.8 217.3,6.6 326,11.4 18.8,1 33.2,-13.2 34,-31.2 0.8,-18 -13.1,-33.2 -31.2,-34 -109,-4.8 -219.1,-8.7 -327.1,-11.5 -0.3,0 -0.5,0 -0.8,0 z m -433.3,-5.6 c -73.5,0 -147,0.5 -220.3,1.5 -18,0.2 -32.4,15 -32.2,33 0.3,17.9 14.8,32.3 32.7,32.3 0.1,0 0.2,0 0.4,0 108.4,-1.5 217.1,-1.9 325.9,-1.2 0.1,0 0.1,0 0.2,0 17.9,0 32.5,-14.4 32.6,-32.4 0.1,-18 -14.4,-32.7 -32.4,-32.8 -35.6,-0.3 -71.3,-0.4 -106.9,-0.4 z M 17607.8,8588 c -7.1,0 -14.3,2.4 -20.3,7.2 -85.7,68.2 -171,137.9 -253.4,207.1 -13.8,11.6 -15.6,32.1 -4.1,46 11.6,13.7 32.2,15.5 46,4 82,-68.8 166.9,-138.2 252.1,-206.1 14.1,-11.2 16.5,-31.8 5.3,-45.8 -6.5,-8.1 -16,-12.4 -25.6,-12.4 z m 521.4,-395.2 c -6.6,0 -13.2,2 -19,6.2 -88.8,64 -177.6,129.7 -263.9,195.1 -14.4,10.9 -17.2,31.4 -6.3,45.7 10.8,14.4 31.3,17.2 45.8,6.3 85.9,-65.1 174.2,-130.5 262.6,-194.2 14.6,-10.6 17.9,-31 7.3,-45.6 -6.4,-8.8 -16.3,-13.5 -26.5,-13.5 z m 538.6,-371 c -6.2,0 -12.4,1.8 -17.9,5.4 -91.8,60.3 -183.3,121.9 -271.9,182.9 -14.9,10.2 -18.6,30.5 -8.4,45.4 10.2,14.8 30.5,18.6 45.4,8.3 88.3,-60.7 179.4,-122 270.8,-182.1 15,-9.9 19.2,-30.1 9.3,-45.1 -6.3,-9.6 -16.7,-14.8 -27.3,-14.8 z m 554.2,-347.2 c -5.7,0 -11.5,1.5 -16.7,4.6 -93.9,56.1 -188,113.7 -279.6,171 -15.3,9.6 -19.9,29.7 -10.3,45 9.6,15.3 29.7,19.8 45,10.3 91.1,-57.1 184.8,-114.4 278.3,-170.3 15.5,-9.2 20.6,-29.3 11.3,-44.7 -6.1,-10.2 -16.9,-15.9 -28,-15.9 z m 568.8,-322.9 c -5.2,0 -10.5,1.3 -15.5,4 -95.6,51.4 -192.1,104.8 -286.8,158.6 -15.6,8.9 -21.2,28.8 -12.2,44.5 8.8,15.6 28.7,21.2 44.5,12.3 94.2,-53.6 190.3,-106.7 285.5,-158 15.9,-8.6 21.8,-28.4 13.2,-44.2 -5.9,-11 -17.1,-17.2 -28.7,-17.2 z m 583,-296.4 c -4.7,0 -9.5,1 -14,3.2 -97.3,46.5 -196.2,95.3 -294,145.1 -16.1,8.1 -22.5,27.8 -14.3,43.8 8.1,16.2 27.8,22.5 43.8,14.3 97.4,-49.5 195.8,-98.1 292.6,-144.3 16.3,-7.8 23.2,-27.2 15.4,-43.5 -5.6,-11.7 -17.3,-18.6 -29.5,-18.6 z m 597.8,-265.5 c -4.1,0 -8.3,0.7 -12.4,2.4 -98.4,40.3 -199.9,83.6 -301.6,128.8 -16.5,7.4 -23.9,26.7 -16.6,43.1 7.3,16.5 26.7,23.9 43.1,16.6 101.1,-45 202,-88.1 299.9,-128.1 16.6,-6.8 24.6,-25.9 17.8,-42.6 -5.1,-12.6 -17.3,-20.2 -30.2,-20.2 z m 614.1,-225.3 c -3.3,0 -6.6,0.5 -9.9,1.5 -99.9,32 -204.4,68.1 -310.6,107.2 -16.9,6.2 -25.5,25 -19.3,41.9 6.2,16.9 25,25.5 41.9,19.3 105.3,-38.8 208.9,-74.5 307.9,-106.2 17.1,-5.5 26.6,-23.9 21.1,-41 -4.4,-13.9 -17.3,-22.7 -31.1,-22.7"
         style="fill:#000000;fill-opacity:1;fill-rule:nonzero;stroke:none"
         id="path22" />
      <path
         d="m 22062.4,6233.6 c -2.4,0 -4.8,0.2 -7.2,0.7 -51.2,11.4 -104.9,24.4 -159.6,38.6 -17.5,4.5 -27.9,22.3 -23.4,39.8 4.5,17.4 22.3,28.1 39.8,23.4 53.9,-14 106.9,-26.8 157.4,-38 17.6,-3.9 28.7,-21.4 24.8,-39 -3.4,-15.2 -16.9,-25.5 -31.8,-25.5"
         style="fill:#000000;fill-opacity:1;fill-rule:nonzero;stroke:none"
         id="path24" />
    </g>
  </g>
</svg>
